<svg id="Layer_1" xmlns="http://www.w3.org/2000/svg" xmlns:xlink="http://www.w3.org/1999/xlink" viewBox="0 0 228 30"><style>.st0{fill:#F9F9F9;} .st1{clip-path:url(#SVGID_2_);fill:#26A6D1;} .st2{clip-path:url(#SVGID_2_);fill:#324D5B;} .st3{fill-rule:evenodd;clip-rule:evenodd;fill:#FBB231;} .st4{fill-rule:evenodd;clip-rule:evenodd;fill:#EC1C2E;} .st5{fill-rule:evenodd;clip-rule:evenodd;fill:#FFFFFF;} .st6{fill:none;stroke:#FFFFFF;stroke-width:0.216;stroke-miterlimit:2.6131;} .st7{fill:#0078A9;} .st8{fill:#FFFFFF;} .st9{fill:#3957A7;} .st10{fill:#F9A533;}</style><title>cards</title><path class="st0" d="M106.2 28.5c0 .9-.7 1.6-1.5 1.6H62.5c-.8 0-1.5-.7-1.5-1.6V1.6c0-.9.7-1.6 1.5-1.6h42.2c.8 0 1.5.7 1.5 1.6v26.9m121.8 0c0 .9-.7 1.6-1.5 1.6h-42c-.8 0-1.5-.7-1.5-1.6V1.6c0-.9.7-1.6 1.5-1.6h42c.8 0 1.5.7 1.5 1.6v26.9"/><defs><path id="SVGID_1_" d="M198 6h15.4v18.3H198z"/></defs><clipPath id="SVGID_2_"><use xlink:href="#SVGID_1_" overflow="visible"/></clipPath><path class="st1" d="M211.9 10.7c.2-1.4 0-2.4-.8-3.3-.8-.9-2.4-1.4-4.3-1.4h-5.6c-.4 0-.8.3-.8.7L198 21.6c-.1.3.2.6.5.6h3.5l-.2 1.5c-.1.2.2.5.4.5h2.9c.3 0 .6-.2.7-.6v-.2l.6-3.5.1-.2c.1-.3.3-.6.7-.6h.5c2.9 0 5.1-1.2 5.7-4.5.3-1.4.1-2.6-.6-3.4-.3-.2-.6-.4-.9-.5"/><path class="st2" d="M211.9 10.7c.2-1.4 0-2.4-.8-3.3-.8-.9-2.4-1.4-4.3-1.4h-5.6c-.4 0-.8.3-.8.7L198 21.6c-.1.3.2.6.5.6h3.5l.9-5.5v.2c.1-.4.4-.7.8-.7h1.6c3.3 0 5.8-1.3 6.5-5.1 0-.2.1-.3.1-.4"/><path class="st2" d="M203.8 10.7c.1-.2.2-.4.4-.5.1-.1.2-.1.3-.1h4.4c.5 0 1 .1 1.5.1.1 0 .2.1.3.1.1 0 .2.1.3.1.1 0 .1.1.2.1.2.1.4.2.6.2.2-1.4 0-2.4-.8-3.3-.8-.9-2.4-1.4-4.3-1.4h-5.6c-.4 0-.8.3-.8.7L198 21.6c-.1.3.2.6.5.6h3.5l.9-5.5.9-6zm0 0"/><path class="st3" d="M90.4 25.8h.5l.5-.1h.5l.5-.1.5-.1.5-.2.5-.1.4-.2.5-.2.4-.2.5-.3.4-.3.4-.2.4-.3.3-.4.4-.3.3-.4.3-.3.3-.4.3-.4.3-.4.2-.4.3-.5.2-.4.2-.5.1-.5.2-.5.1-.4.1-.5v-.6l.1-.5v-1l-.1-.5v-.5l-.1-.5-.1-.5-.2-.5-.1-.5-.2-.4-.2-.5-.3-.4-.2-.5-.3-.4-.3-.4-.3-.3-.3-.4-.3-.4-.4-.3-.3-.3-.4-.3-.4-.3-.4-.3-.5-.2-.4-.2-.5-.2-.4-.2-.5-.2-.5-.1-.5-.1-.5-.1-.5-.1h-2.1l-.5.1-.5.1-.5.1-.4.1-.5.2-.5.2-.4.2-.5.2-.4.2-.4.3-.4.3-.4.3-.3.3-.4.3-.3.4-.3.4-.4.3-.2.4-.3.4-.2.5-.3.4-.2.5-.2.4-.1.5-.1.5-.2.5v.5l-.1.5-.1.5v1l.1.5.1.6v.5l.2.4.1.5.1.5.2.5.2.4.3.5.2.4.3.4.2.4.4.4.3.3.3.4.4.3.3.4.4.3.4.2.4.3.4.3.5.2.4.2.5.2.5.1.4.2.5.1.5.1h.5l.6.1h.5z"/><path class="st4" d="M76.8 25.8h.5l.5-.1h.5l.5-.1.5-.1.5-.2.5-.1.4-.2.5-.2.4-.2.4-.3.5-.3.4-.2.3-.3.4-.4.4-.3.3-.4.3-.3.3-.4.3-.4.3-.4.2-.4.2-.5.2-.4.2-.5.2-.5.1-.5.1-.4.1-.5.1-.6v-2l-.1-.5-.1-.5-.1-.5-.1-.5-.2-.5-.2-.4-.2-.5-.2-.4-.2-.5-.3-.4-.3-.4-.3-.3-.3-.4-.3-.4-.4-.3-.4-.3-.3-.3-.4-.3-.5-.3-.4-.2-.4-.2-.5-.2-.4-.2-.5-.2-.5-.1-.5-.1-.5-.1-.5-.1h-2.1l-.5.1-.5.1-.5.1-.4.1-.5.2-.5.2-.4.2-.5.2-.4.2-.4.3-.4.3-.4.3-.4.3-.3.3-.4.4-.3.4-.3.3-.3.4-.2.4-.3.5-.2.4-.2.5-.2.4-.1.5-.2.5-.1.5-.1.5-.1.5v2l.1.6.1.5.1.4.2.5.1.5.2.5.2.4.2.5.3.4.2.4.3.4.3.4.3.3.4.4.3.3.4.4.4.3.4.2.4.3.4.3.5.2.4.2.5.2.5.1.4.2.5.1.5.1h.5l.6.1h.5z"/><path class="st3" d="M82.4 9.4h5.4v-.6h-4.9l-.5.6zm-.8 1.2h6.2V10h-5.9l-.3.6zm-.6 1.2h6.8v-.5h-6.6l-.2.5zm-.4 1.2h7.2v-.5h-7.1l-.1.5zm.2 6h7v-.6h-7.2l.2.6zm.5 1.2h6.5v-.6h-6.7l.2.6zm.8 1.2h5.7v-.5h-6.1l.4.5zm1 1.2h4.7v-.5h-5.2l.5.5zm-2.8-8.3h7.5v-.6h-7.4l-.1.6zm4.6 3.4h2.8v-.5H85l-.1.5zm.2-1.2h2.6V16h-2.5l-.1.5zm-5-.5h.8v.5h-.7l-.1-.5z"/><path class="st5" d="M78.8 15.3h-.3l-.1-.1h-.6l-.1.1h-.2v.1h-.1v.3l.1.1.1.1h.1l.1.1h.2l.1.1h.2l.1.1h.1v.1l.1.1.1.2v.7l-.1.1v.2l-.1.1-.1.1-.1.1h-.1l-.1.1H78l-.1.1h-.2l-.1.1h-1.2l-.1-.1h-.4V18l.1-.7h.3l.1.1h1l.1-.1.1-.1v-.3l-.1-.1-.1-.1h-.2l-.1-.1H77l-.2-.1-.1-.1-.1-.1-.1-.1-.1-.1-.1-.1v-.7l.1-.1v-.1l.1-.1v-.1l.1-.1.1-.1.1-.1h.1l.1-.1h.3l.2-.1h.9l.1.1h.4l-.1.8z"/><path class="st6" d="M78.8 15.3h-.3l-.1-.1h-.6l-.1.1h-.2v.1h-.1v.3l.1.1.1.1h.1l.1.1h.2l.1.1h.2l.1.1h.1v.1l.1.1.1.2v.7l-.1.1v.2l-.1.1-.1.1-.1.1h-.1l-.1.1H78l-.1.1h-.2l-.1.1h-1.2l-.1-.1h-.4V18l.1-.7h.3l.1.1h1l.1-.1.1-.1v-.3l-.1-.1-.1-.1h-.2l-.1-.1H77l-.2-.1-.1-.1-.1-.1-.1-.1-.1-.1-.1-.1v-.7l.1-.1v-.1l.1-.1v-.1l.1-.1.1-.1.1-.1h.1l.1-.1h.3l.2-.1h.9l.1.1h.4l-.1.8"/><path class="st5" d="M79.6 13.7h.9l-.1.8h.5l-.1.8h-.6l-.3 1.9v.1l.1.1h.6l-.1.6-.1.1h-.2l-.1.1h-.6l-.1-.1h-.3V18H79l-.1-.1v-.5l.7-3.7z"/><path class="st6" d="M79.6 13.7h.9l-.1.8h.5l-.1.8h-.6l-.3 1.9v.1l.1.1h.6l-.1.6-.1.1h-.2l-.1.1h-.6l-.1-.1h-.3V18H79l-.1-.1v-.5l.7-3.7"/><path class="st6" d="M81.7 16.6v.3h.1v.2h.1v.1h.1l.1.1h.1l.1.1h1l.1-.1h.1l.1-.1h.1l.1-.1-.1.9h-.1l-.1.1h-.3l-.1.1h-.9l-.2-.1h-.1l-.2-.1h-.2l-.1-.1-.2-.1-.1-.1-.1-.2-.1-.1-.1-.2V17l-.1-.2v-.7l.1-.1v-.3l.1-.1v-.2l.1-.1.1-.2.1-.1.2-.2.1-.1.2-.1.2-.1h.2l.2-.1h.6l.1.1h.2l.1.1h.1l.2.1.1.1.1.1.1.1v.2l.1.2v.7l-.1.3v.2h-2.5l.2-.7h1.5v-.3l-.1-.1v-.1l-.1-.1h-.1v-.1h-.5l-.1.1h-.1v.1H82v.1l-.1.1v.2l-.1.1-.1.7"/><path class="st5" d="M89.9 14.7h-.1l-.1-.1h-.2v-.1h-1.1l-.1.1h-.1l-.1.1H88l-.1.1-.1.1v.2l-.1.1-.1.2v.2l-.1.2v.8l.1.1v.1l.1.1.1.1v.1h.1l.1.1h.3l.1.1h.5l.1-.1h.3v-.1h.1l.1-.1-.2.9v.1h-.2v.1h-.3l-.2.1H88l-.2-.1h-.3l-.1-.1-.2-.1-.1-.1-.2-.1-.1-.2-.1-.1-.1-.2-.1-.2-.1-.2v-1l.1-.2v-.2l.1-.1V15l.1-.1v-.1l.1-.1v-.1l.1-.1.1-.1v-.1l.1-.1h.1v-.1l.1-.1h.1l.1-.1.1-.1.1-.1h.2l.1-.1h.4l.1-.1h.8l.1.1h.3l.1.1h.2l.1.1-.2.9z"/><path class="st6" d="M89.9 14.7h-.1l-.1-.1h-.2v-.1h-1.1l-.1.1h-.1l-.1.1H88l-.1.1-.1.1v.2l-.1.1-.1.2v.2l-.1.2v.8l.1.1v.1l.1.1.1.1v.1h.1l.1.1h.3l.1.1h.5l.1-.1h.3v-.1h.1l.1-.1-.2.9v.1h-.2v.1h-.3l-.2.1H88l-.2-.1h-.3l-.1-.1-.2-.1-.1-.1-.2-.1-.1-.2-.1-.1-.1-.2-.1-.2-.1-.2v-1l.1-.2v-.2l.1-.1V15l.1-.1v-.1l.1-.1v-.1l.1-.1.1-.1v-.1l.1-.1h.1v-.1l.1-.1h.1l.1-.1.1-.1.1-.1h.2l.1-.1h.4l.1-.1h.8l.1.1h.3l.1.1h.2l.1.1-.2.9"/><path class="st5" d="M98.3 18.2h-.9v-.4l-.1.1-.1.1-.1.1H97l-.1.1h-.8l-.2-.1-.1-.1-.1-.1-.1-.1-.1-.1-.1-.2-.1-.1v-.2l-.1-.1v-.9l.1-.2.1-.2v-.2l.1-.1.1-.2.1-.1.1-.2.1-.1.1-.1.2-.1h.1l.1-.1h.2l.1-.1h.6v.1h.2l.1.1h.1v.1h.1v.1h.1v.1l.3-1.3h.9l-.8 4.5z"/><path class="st6" d="M98.3 18.2h-.9v-.4l-.1.1-.1.1-.1.1H97l-.1.1h-.8l-.2-.1-.1-.1-.1-.1-.1-.1-.1-.1-.1-.2-.1-.1v-.2l-.1-.1v-.9l.1-.2.1-.2v-.2l.1-.1.1-.2.1-.1.1-.2.1-.1.1-.1.2-.1h.1l.1-.1h.2l.1-.1h.6v.1h.2l.1.1h.1v.1h.1v.1h.1v.1l.3-1.3h.9l-.8 4.5"/><path class="st3" d="M96.8 17.3h.3l.1-.1h.1v-.1l.1-.1.1-.1v-.1l.1-.1v-.1l.1-.1v-.7l-.1-.1v-.1l-.1-.1-.1-.1-.1-.1H97l-.1.1-.1.1h-.1v.1h-.1l-.1.1v.2l-.1.1v.1l-.1.1v.6l.1.2v.1l.1.1.1.1h.2z"/><path class="st5" d="M75.7 17.4l-.1.8h-.9V18l.1-.1v-.1h-.1v.1h-.1l-.1.1-.1.1h-.2l-.1.1h-.8l-.1-.1h-.1L73 18h-.1l-.1-.1-.1-.1v-.2h-.1v-.7l.1-.1v-.1l.1-.1v-.1l.1-.1.1-.1.1-.1.1-.1h.1l.1-.1h.1l.1-.1h.6v-.1h.8v-.4h-.1l-.1-.1h-1.4v.1h-.3l.3-.8h.1l.1-.1h1.7l.1.1h.1l.1.1.1.1h.1l.1.1.1.1v.1l.1.1v.4l-.4 1.8z"/><path class="st6" d="M75.7 17.4l-.1.8h-.9V18l.1-.1v-.1h-.1v.1h-.1l-.1.1-.1.1h-.2l-.1.1h-.8l-.1-.1h-.1L73 18h-.1l-.1-.1-.1-.1v-.2h-.1v-.7l.1-.1v-.1l.1-.1v-.1l.1-.1.1-.1.1-.1.1-.1h.1l.1-.1h.1l.1-.1h.6v-.1h.8v-.4h-.1l-.1-.1h-1.4v.1h-.3l.3-.8h.1l.1-.1h1.7l.1.1h.1l.1.1.1.1h.1l.1.1.1.1v.1l.1.1v.4l-.4 1.8"/><path class="st4" d="M74.9 16.5h-.8v.1H74l-.1.1h-.1v.1h-.1v.5h.1v.1h.5l.1-.1h.1l.1-.1h.1V17h.1v-.3l.1-.1v-.1z"/><path class="st5" d="M68.5 18.2h-.9l.7-4.5H70l.1 2.6 1.1-2.6h1.7l-.8 4.5h-.9l.6-3.4-1.4 3.4h-1.1v-.5l-.1-.6v-1.2l-.1-.5v-.6l-.6 3.4z"/><path class="st6" d="M68.5 18.2h-.9l.7-4.5H70l.1 2.6 1.1-2.6h1.7l-.8 4.5h-.9l.6-3.4-1.4 3.4h-1.1v-.5l-.1-.6v-1.2l-.1-.5v-.6l-.6 3.4"/><path class="st5" d="M92.7 17.4l-.1.8h-.9v-.4.1h-.1l-.1.1-.1.1h-.2l-.1.1h-.8l-.1-.1h-.1L90 18h-.1v-.1h-.1v-.1l-.1-.1v-.2l-.1-.1v-.3l.1-.2v-.2l.1-.1v-.1l.1-.1.1-.1.1-.1.1-.1h.1l.1-.1h.1l.1-.1h.6v-.1h.8l.1-.1v-.1l-.1-.1v-.1h-.1v-.1h-1.4l-.1.1h-.2l.2-.8h.2l.1-.1h1.7l.1.1h.1l.1.1.1.1h.1v.1l.1.1v.1l.1.1v.4l-.4 1.8z"/><path class="st5" d="M92.6 18.2l.2-.8h-.1l-.1.8v-.1.1z"/><path class="st5" d="M91.7 18.2h.9v-.1h-.9l.1.1h-.1z"/><path class="st5" d="M91.8 17.8h-.1v.4h.1v-.4h-.1.1z"/><path class="st5" d="M90.4 18.2h.1l.1.1.1-.1h.5l.1-.1h.1l.1-.1.1-.1h.1v-.1h.1-.1l-.1.1-.1.1h-.1l-.1.1h-.2l-.1.1h-.6zm-.8-1v.3l.1.1v.1l.1.1v.1h.1v.1l.1.1h.1l.1.1h.2-.1l-.1-.1h-.1L90 18l-.1-.1h-.1v-.2l-.1-.1v-.3h-.1l.1-.1h-.1zm1.2-1.3h-.2l-.1.1h-.1l-.1.1h-.1l-.1.1-.1.1-.1.1-.1.1v.1l-.1.1v.1l-.1.1v.3h.1v-.4l.1-.1v-.1l.1-.1v-.1l.1-.1.1-.1h.1l.1-.1.1-.1h.2l.1-.1h.1zm.7-.1h-.4l-.1.1h-.2.6l.1-.1zm.5 0h-.5.2l.1.1h.2v-.1.1-.1zm0-.2v.2h.1v-.2H92zm-.4-.3h.2l.1.1h.1v.2h.1v-.1H92v-.1l-.1-.1h-.1l-.1-.1h-.1v.1zm-1.4.1v.1-.1h.3l.1-.1h1v-.1h-.5l-.1.1h-.6l-.1.1h-.1zm.2-.8l-.2.8.2-.8zm1.5-.2h-.8l-.1.1h-.4l-.1.1h-.1.3v-.1h1.2v-.1zm1.2 1.2v-.5L93 15l-.1-.1v-.1l-.1-.1h-.1l-.1-.1h-.1l-.1-.1h-.3l-.1-.1h-.1v.1h.3l.1.1h.2l.1.1h.1l.1.1.1.1.1.1v.1l.1.1v.4zm-.3 1.8l.3-1.8-.4 1.8h.1z"/><path class="st3" d="M91.9 16.5h-.7l-.1.1h-.2v.1l-.1.1-.1.1v.4h.1v.1h.6v-.1h.2v-.1h.1v-.1h.1v-.2h.1v-.4z"/><path class="st5" d="M99 17.7v-.2l.1-.1.1-.1h.1l.1-.1h.1l.1.1h.1l.1.1.1.1v.2h-.1v-.2l-.1-.1h-.1l-.1-.1h-.1l-.1.1h-.1l-.1.1v.2H99z"/><path class="st5" d="M99.3 17.7v-.2h.3v.2h-.1.1v-.1h-.2v.1h-.1zm-.3 0v.2l.1.1v.1h.1l.1.1h.3l.1-.1h.1V18l.1-.1v-.2h-.1v.2l-.1.1v.1h-.5V18l-.1-.1v-.2H99z"/><path class="st5" d="M99.3 17.7v.2h.1v-.2l.2.2-.1-.2h.1-.3z"/><path class="st6" d="M99 17.7v-.3l.1-.1.1-.1h.6l.1.1.1.1v.6l-.1.1-.1.1h-.6l-.1-.1v-.2l-.1-.2m.4.2l-.1-.4h.2l.1.2h-.1l-.1-.2h-.1v.4m.1-.2h.1-.1m0 .4h.4v-.8H99v.8h.4"/><path class="st5" d="M93 18.2h1l.3-2v-.1l.1-.1v-.2h.1v-.1l.1-.1.1-.1h.1l.1-.1h.2l.1-.1h.2l.2-.8h-.5v.1H95l-.1.1-.1.1-.1.1h-.1v.1l-.1.1.1-.6h-1l-.6 3.7z"/><path class="st6" d="M93 18.2h1l.3-2v-.1l.1-.1v-.2h.1v-.1l.1-.1.1-.1h.1l.1-.1h.2l.1-.1h.2l.2-.8h-.5v.1H95l-.1.1-.1.1-.1.1h-.1v.1l-.1.1.1-.6h-1l-.6 3.7"/><path class="st5" d="M83.9 18.2h1l.3-2v-.1h.1v-.2l.1-.1v-.1l.1-.1h.1v-.1h.2l.1-.1h.4v-.3h.1v-.2l.1-.1v-.1l.1-.1v-.1H86v.1h-.1l-.1.1h-.1v.1l-.1.1-.1.1v.1h-.1l.1-.6h-.9l-.7 3.7z"/><path class="st6" d="M83.9 18.2h1l.3-2v-.1h.1v-.2l.1-.1v-.1l.1-.1h.1v-.1h.2l.1-.1h.4v-.3h.1v-.2l.1-.1v-.1l.1-.1v-.1H86v.1h-.1l-.1.1h-.1v.1l-.1.1-.1.1v.1h-.1l.1-.6h-.9l-.7 3.7"/><path class="st3" d="M99 21.8v-.1l.1-.1v-.1h.1l.1-.1h.3l.1.1h.1v.1l.1.1v.1h-.1v-.2h-.1v-.1h-.5v.1h-.1v.2H99z"/><path class="st3" d="M99.3 21.8v-.1h.3v.1-.1h-.2v.1h-.1zm-.3.1v-.1h.1v.1H99z"/><path class="st3" d="M99.3 21.9v-.1h.3v.1h-.3zm.5 0v-.1h.1v.1h-.1zm-.8 0v.2h.1v.1l.1.1h.2v.1l.1-.1h.2l.1-.1v-.1h.1v-.2h-.1v.2h-.1v.1h-.1l-.1.1h-.1l-.1-.1h-.1v-.1h-.1v-.2H99z"/><path class="st3" d="M99.3 21.9v.2h.1v-.2l.2.2-.1-.2h.1-.3z"/><path class="st5" d="M84 15.6v-.4l-.1-.2-.1-.1-.1-.1-.1-.1-.1-.1-.1-.1-.1-.1h-.9l-.2.1-.2.1-.2.1-.2.1-.4.2-.1.1-.1.2-.1.2-.1.1-.1.1v1.2l.1.2.1.2.1.2.1.1.1.1.1.1.2.1.2.1.2.1h2.4l.1-.8-.1.1-.1.1h-1.9l-.1-.1-.1-.1v-.8h2.2v-.2l.1-.3v-.3l-.4-.1zm-.9.3h-1.3v-.7h1.3v.7z"/><path class="st7" d="M166.2 28.4c0 .9-.7 1.6-1.5 1.6h-41.8c-.8 0-1.5-.7-1.5-1.6V1.6c0-.9.7-1.6 1.5-1.6h41.8c.8 0 1.5.7 1.5 1.6v26.8z"/><path class="st8" d="M134.8 14.8v-.5l-.2.5h-1.9l-.2-.5v.5h-3.6l-.4-1h-.7l-.4 1h-1.9v-3l1.4-3.1h2.6l.4.9v-.9h3.2l.7 1.5.7-1.5h10.1s.5 0 .9.2v-.2h2.5V9s.5-.3 1.1-.3h4.5l.4.9v-.9h2.9l.5.9v-.9h2.8v6.1h-2.8l-.7-1.1v1.1h-3.5l-.5-1.1h-.7l-.5 1.1h-2.1s-.8 0-1.4-.4v.4h-4.2v-1.4c0-.2-.2-.2-.2-.2h-.2v1.6h-8.6zm-2.1 1.3h5.6l.7.9.8-.9h4.3s.4 0 .8.2v-.2h3.8c.5 0 .9.2.9.2v-.2h4.9v.2s.3-.2.8-.2h3.2v.2s.4-.2.8-.2h2.5v5.8s-.3.4-1 .4h-3.3v-.2s-.3.2-.8.2h-8.8v-1.5c0-.1-.1-.2-.2-.2h-.1v1.7h-2.7v-1.7s-.3.2-.8.2h-1v1.5h-3.4l-.8-.9-.8.9h-5.5v-6.2z"/><path class="st7" d="M150.2 17.1h3.5v.9h-2.5v.8h2.4v.8h-2.4v.9h2.5v.9h-3.5zm10.2 1.7c1.3.1 1.4.7 1.4 1.4 0 .8-.7 1.3-1.4 1.3h-2.2v-.9h1.7c.3 0 .7 0 .7-.4 0-.2-.1-.3-.4-.4-.1 0-.7 0-.7-.1-1.2 0-1.5-.6-1.5-1.3 0-.8.6-1.3 1.3-1.3h2.2v.9H160c-.4 0-.8 0-.8.4 0 .3.2.3.5.3 0 0 .6.1.7.1zm-4 0c1.3.1 1.4.7 1.4 1.4 0 .8-.7 1.3-1.4 1.3h-2.2v-.9h1.7c.3 0 .7 0 .7-.4 0-.2-.1-.3-.4-.4-.1 0-.7 0-.7-.1-1.2 0-1.5-.6-1.5-1.3 0-.8.6-1.3 1.3-1.3h2.2v.9H156c-.4 0-.8 0-.8.4 0 .3.2.3.5.3 0 0 .6.1.7.1zm-12.7-1.7H140l-1.2 1.3-1.2-1.4h-4.2v4.3h4.1l1.3-1.4 1.3 1.4h2v-1.5h1.4c.6 0 1.6 0 1.6-1.5-.1-1-.8-1.2-1.4-1.2zm-6.8 3.4h-2.5v-.9h2.4v-.8h-2.4V18h2.6l1 1.2-1.1 1.3zm4.1.5l-1.5-1.8 1.5-1.7V21zm2.4-2H142v-1h1.3c.4 0 .6.3.6.5.1.3-.1.5-.5.5zm5.5.4c.6-.3.7-.7.7-1.2 0-.9-.8-1.2-1.3-1.2h-2.8v4.3h1.1v-1.5h1.4c.4 0 .5.4.5.7v.8h1v-.9c.1-.6-.1-.9-.6-1zm-.9-.4h-1.3v-1h1.3c.4 0 .6.3.6.5 0 .3-.2.5-.6.5zm-2-9.4h1.1V14H146zm-8.7 0h3.4v.9h-2.4v.8h2.4v.8h-2.4v.9h2.4v.9h-3.4zm7.4 2.3c.6-.3.7-.7.7-1.2 0-.9-.8-1.2-1.3-1.2h-2.8v4.3h1.1v-1.5h1.4c.4 0 .5.4.5.7v.8h1v-.9c.1-.6-.1-.9-.6-1zm-.9-.4h-1.3v-1h1.3c.4 0 .6.3.6.5 0 .3-.2.5-.6.5zm-9-1.9l-1.3 2.9-1.3-2.9h-1.7v4.2l-1.9-4.2h-1.4l-1.9 4.3h1.1l.4-1h2.1l.4 1h2.1v-3.2l1.4 3.2h1l1.5-3.2v3.2h1.1V9.6h-1.6zm-7.5 2.4l.6-1.5.7 1.5h-1.3zm30.8-2.4v3l-1.8-3h-1.6v4.1l-1.8-4.1h-1.4L150 13h-.7c-.3-.1-.7-.2-.7-1v-.3c0-1 .6-1.1 1.3-1.1h.7v-1h-1.4c-.5 0-1.5.4-1.6 2.2 0 1.2.5 2.2 1.7 2.2h1.4l.4-1h2.1l.4 1h2.1v-3.2l1.9 3.2h1.5V9.6h-1zm-6.6 2.4l.6-1.5.7 1.5h-1.3z"/><path class="st9" d="M46.2 28.4c0 .9-.7 1.6-1.5 1.6H1.5C.7 30 0 29.3 0 28.4V1.6C0 .7.7 0 1.5 0h43.1c.8 0 1.5.7 1.5 1.6v26.8z"/><path class="st8" d="M21.2 19.8H19l1.4-8.7h2.3zm-4.1-8.7l-2.2 6-.3-1.3-.8-3.9s-.1-.8-1.1-.8H9.3v.1s1.1.2 2.4 1l2 7.5h2.4l3.6-8.7h-2.6zm17.7 8.7h2.1l-1.8-8.7h-1.8c-.8 0-1 .6-1 .6l-3.4 8h2.4l.5-1.3h2.9l.1 1.4zm-2.4-3.1l1.2-3.2.7 3.2h-1.9zm-3.3-3.5l.3-1.9s-1-.4-2-.4c-1.1 0-3.8.5-3.8 2.9 0 2.2 3.1 2.3 3.1 3.4 0 1.2-2.8 1-3.7.2l-.3 1.9s1 .5 2.5.5 3.9-.8 3.9-3c0-2.3-3.1-2.5-3.1-3.4-.1-.9 2.1-.7 3.1-.2z"/><path class="st10" d="M14.7 14.8l-.8-3.9s-.1-.8-1.1-.8H9.3v.1s1.7.4 3.3 1.7c1.6 1.3 2.1 2.9 2.1 2.9z"/></svg>