<svg xmlns="http://www.w3.org/2000/svg" viewBox="0 0 559.34 177.41"><defs><style>.cls-3{fill:#231f20}</style></defs><title>Puzzle Post</title><g style="isolation:isolate"><g id="Layer_1" data-name="Layer 1"><path d="M634.07 262.59h-26.89" transform="translate(-116.45 -182.49)" fill="#fff"/><path class="cls-3" d="M660.2 233.93v2h-3.9v10.17h-2.42V236H650v-2zm13.17 12.19l-.45-7.17c0-.94 0-2.11-.09-3.41h-.13c-.31 1.08-.67 2.51-1 3.63l-2.2 6.77H667l-2.2-6.95c-.23-.94-.59-2.37-.86-3.45h-.13c0 1.12 0 2.29-.09 3.41l-.45 7.17h-2.32l.89-12.19h3.63l2.11 6c.27.94.49 1.84.8 3.09.31-1.12.58-2.15.85-3l2.1-6h3.5l.94 12.19z" transform="translate(-116.45 -182.49)"/><path d="M124.61 317.31l4.1 33.72 49.31-6a16.89 16.89 0 0 0 33.53-4.03l49.31-6L250 245.33a11.42 11.42 0 0 0-12.69-9.94l-120.86 14.67 4.09 33.72a16.89 16.89 0 1 1 4.07 33.53z" transform="translate(-116.45 -182.49)" fill="#fab03b"/><path d="M240.4 271.2a.76.76 0 0 1 .67-.85l-.1-.89a.75.75 0 0 1-.84-.67.76.76 0 0 1 .67-.85l-.1-.88a.77.77 0 0 1-.85-.68.76.76 0 0 1 .67-.84l-.1-.89a.76.76 0 0 1-.85-.67.78.78 0 0 1 .68-.85l-.1-.89a.77.77 0 1 1-.18-1.52l-.1-.89a.76.76 0 1 1-.17-1.52l-.11-.88a.76.76 0 0 1-.84-.68.76.76 0 0 1 .67-.84l-.1-.89a.77.77 0 1 1-.18-1.52l-.1-.89a.75.75 0 0 1-.84-.67.76.76 0 0 1 .67-.85l-.1-.89a.76.76 0 0 1-.85-.67.75.75 0 0 1 .67-.84l-.1-.89a.76.76 0 1 1-.17-1.52l-.08-.66a.76.76 0 0 1-1.24-.5l-.89.1a.76.76 0 1 1-1.51.17l-.89.1a.77.77 0 0 1-.68.85.76.76 0 0 1-.84-.67l-.89.1a.76.76 0 1 1-1.52.17l-.89.11a.76.76 0 0 1-.67.84.76.76 0 0 1-.85-.67l-.89.1a.76.76 0 0 1-.67.85.75.75 0 0 1-.84-.67l-.9.1a.76.76 0 0 1-1.52.17l-.89.1a.77.77 0 1 1-1.52.18l-.89.1a.76.76 0 0 1-.67.85.78.78 0 0 1-.85-.68l-.89.11a.76.76 0 0 1-.67.85.75.75 0 0 1-.84-.67l-.89.1a.77.77 0 0 1-.68.85.76.76 0 0 1-.84-.68l-.92.12a.75.75 0 0 1-.67.84.76.76 0 0 1-.85-.67l-.89.1a.77.77 0 1 1-1.52.18l-.89.1a.76.76 0 0 1-1.51.17l-.89.1a.77.77 0 0 1-.68.85.76.76 0 0 1-.84-.67l-.89.1a.76.76 0 0 1-.67.85.78.78 0 0 1-.85-.68l-.48.06a.8.8 0 0 1 .17.4.76.76 0 0 1-.67.85l.1.88a.78.78 0 0 1 .85.68.76.76 0 0 1-.68.84l.11.89a.77.77 0 0 1 .84.68.76.76 0 0 1-.67.84l.1.89a.77.77 0 1 1 .18 1.52l.1.89a.75.75 0 0 1 .84.67.76.76 0 0 1-.67.85l.1.88a.78.78 0 0 1 .85.68.75.75 0 0 1-.67.84l.1.89a.76.76 0 1 1 .17 1.52l.1.89a.77.77 0 0 1 .18 1.52l.1.89a.76.76 0 0 1 .85.67.78.78 0 0 1-.68.85l.11.88a.77.77 0 0 1 .84.68.75.75 0 0 1-.67.84l.1.89a.77.77 0 0 1 .85.68.76.76 0 0 1-.67.84l.1.89h.23a.78.78 0 0 1 .84.68l.89-.1a.77.77 0 1 1 1.52-.18l.89-.1a.76.76 0 1 1 1.52-.17l.88-.11a.76.76 0 0 1 .68-.84.75.75 0 0 1 .84.67l.89-.1a.77.77 0 0 1 .68-.85.76.76 0 0 1 .84.67l.89-.1a.75.75 0 0 1 .67-.84.76.76 0 0 1 .85.67l.89-.1a.77.77 0 1 1 1.52-.18l.88-.1a.78.78 0 0 1 .68-.85.76.76 0 0 1 .84.68l.89-.11a.77.77 0 0 1 .68-.84.76.76 0 0 1 .84.67l.89-.1a.77.77 0 1 1 1.52-.18l.89-.1a.75.75 0 0 1 .67-.84.76.76 0 0 1 .85.67l.88-.1a.78.78 0 0 1 .68-.85.75.75 0 0 1 .84.67l.89-.1a.76.76 0 1 1 1.52-.17l.89-.1a.77.77 0 1 1 1.52-.18l.89-.1a.76.76 0 0 1 .67-.85.78.78 0 0 1 .85.68l.88-.11a.77.77 0 0 1 .68-.84.75.75 0 0 1 .84.67l.89-.1v-.12a.75.75 0 0 1-.4-.66z" transform="translate(-116.45 -182.49)" style="mix-blend-mode:multiply" fill="#b7b4ae"/><path d="M240.7 270.61a.76.76 0 0 1 .67-.84l-.1-.89a.75.75 0 0 1-.84-.67.76.76 0 0 1 .67-.85l-.1-.89a.77.77 0 1 1-.18-1.52l-.1-.89a.76.76 0 0 1-.85-.67.78.78 0 0 1 .68-.85l-.1-.88a.78.78 0 0 1-.85-.68.76.76 0 0 1 .67-.84l-.1-.89a.76.76 0 1 1-.17-1.52l-.11-.89a.76.76 0 0 1-.84-.67.76.76 0 0 1 .67-.85l-.1-.89a.77.77 0 1 1-.18-1.52l-.1-.88a.76.76 0 0 1-.84-.68.76.76 0 0 1 .67-.84l-.1-.89a.77.77 0 1 1-.18-1.52l-.1-.89a.76.76 0 0 1-.85-.67.78.78 0 0 1 .68-.85l-.08-.65a.68.68 0 0 1-.39.16.76.76 0 0 1-.85-.67l-.89.1a.76.76 0 0 1-.67.85.75.75 0 0 1-.84-.67l-.89.1a.76.76 0 1 1-1.52.17l-.89.11a.76.76 0 0 1-1.52.17l-.89.1a.76.76 0 1 1-1.52.17l-.89.11a.76.76 0 0 1-1.51.17l-.89.1a.77.77 0 0 1-.68.85.76.76 0 0 1-.84-.67l-.89.1a.75.75 0 0 1-.67.84.76.76 0 0 1-.85-.67l-.89.1a.77.77 0 1 1-1.52.18l-.89.1a.76.76 0 0 1-.67.85.78.78 0 0 1-.85-.68l-.89.11a.77.77 0 0 1-.68.84.76.76 0 0 1-.84-.67l-.89.1a.77.77 0 0 1-1.52.18l-.89.1a.75.75 0 0 1-.67.84.76.76 0 0 1-.85-.67l-.89.1a.77.77 0 1 1-1.52.18l-.89.1a.76.76 0 1 1-1.52.17l-.89.1a.77.77 0 1 1-1.52.18l-.48.05a.8.8 0 0 1 .17.4.76.76 0 0 1-.67.85l.1.89a.76.76 0 0 1 .85.67.78.78 0 0 1-.68.85l.11.89a.76.76 0 0 1 .84.67.76.76 0 0 1-.67.85l.1.88a.78.78 0 0 1 .85.68.75.75 0 0 1-.67.84l.1.89a.76.76 0 0 1 .84.67.76.76 0 0 1-.67.85l.1.89a.77.77 0 0 1 .18 1.52l.1.89a.76.76 0 0 1 .85.67.78.78 0 0 1-.68.85l.1.88a.78.78 0 0 1 .85.68.75.75 0 0 1-.67.84l.1.89a.76.76 0 1 1 .17 1.52l.11.89a.76.76 0 0 1 .84.67.76.76 0 0 1-.67.85l.1.89A.77.77 0 0 1 203 274l.1.88h.22a.76.76 0 0 1 .85.67l.89-.1a.76.76 0 1 1 1.52-.17l.89-.11a.76.76 0 0 1 .67-.84.76.76 0 0 1 .85.67l.88-.1a.78.78 0 0 1 .68-.85.75.75 0 0 1 .84.67l.89-.1a.76.76 0 0 1 .67-.84.76.76 0 0 1 .85.67l.89-.1a.77.77 0 1 1 1.52-.18l.89-.1a.76.76 0 0 1 .67-.85.78.78 0 0 1 .85.68l.88-.1a.78.78 0 0 1 .68-.85.75.75 0 0 1 .84.67l.89-.1a.76.76 0 1 1 1.52-.17l.89-.11a.75.75 0 0 1 .67-.84.76.76 0 0 1 .85.67l.89-.1a.77.77 0 1 1 1.52-.18l.88-.1a.76.76 0 0 1 .68-.84.75.75 0 0 1 .84.67l.89-.1a.77.77 0 1 1 1.52-.18l.89-.1a.76.76 0 0 1 .67-.85.78.78 0 0 1 .85.68l.89-.11a.76.76 0 0 1 1.52-.17l.88-.1a.78.78 0 0 1 .68-.85.76.76 0 0 1 .84.67l.89-.1v-.11a.77.77 0 0 1-.47-.59z" transform="translate(-116.45 -182.49)" fill="#fcf7e9"/><path transform="rotate(-6.53 -1436.707 1189.546)" fill="#e8e3d6" d="M203.67 248.68h34.27v22.7h-34.27z"/></g><path class="cls-3" d="M291.88 356.33c0 2.13-1.07 3.37-4.26 3.37h-14.17a3.49 3.49 0 0 1-3.37-3.37V239a3.36 3.36 0 0 1 3.37-3.37h6.91a3.18 3.18 0 0 1 3 2.13l2.3 5.85c2.66-3.55 11.35-9.75 22.86-9.75 19.5 0 34.21 16.83 34.21 37.21 0 20.91-15.95 37.22-35.09 37.22a35.31 35.31 0 0 1-15.77-3.9zm12.93-67.16c9.93 0 17.19-8.15 17.19-18.08S315.27 253 305.52 253A15.22 15.22 0 0 0 291 263.83v21.26s5 4.08 13.81 4.08zM351.87 239a3.37 3.37 0 0 1 3.37-3.37h14.53a3.36 3.36 0 0 1 3.37 3.37v34.91c0 9.39 4.78 15.24 12.94 15.24 7.44 0 13.11-6.91 14.17-13.29V239c0-2.66 1.07-3.37 3.9-3.37h13.47A3.37 3.37 0 0 1 421 239v64.15a3.49 3.49 0 0 1-3.37 3.37h-6.56a3.6 3.6 0 0 1-3.36-2.66l-2.14-5.86c-3.19 2.84-9.75 10.28-23.75 10.28-22 0-29.95-16.84-29.95-34.91zm79.49 62.4l25.17-46.4v-.36h-20.2a3.33 3.33 0 0 1-3.19-3.36V239a3.22 3.22 0 0 1 3.19-3.37h46.78c2.66 0 4.43 2.48 3 4.78l-25.69 46.79v.53h19.14a3.26 3.26 0 0 1 3.37 3.37v12.05a3.37 3.37 0 0 1-3.37 3.37h-44.83a3.49 3.49 0 0 1-3.37-3.37zm59.29 0l25.17-46.4v-.36h-20.2a3.33 3.33 0 0 1-3.2-3.36V239a3.23 3.23 0 0 1 3.2-3.37h46.78c2.66 0 4.43 2.48 3 4.78l-25.69 46.79v.53h19.14a3.26 3.26 0 0 1 3.36 3.37v12.05a3.37 3.37 0 0 1-3.36 3.37H494a3.49 3.49 0 0 1-3.37-3.37zm63.49-115.55a3.49 3.49 0 0 1 3.37-3.36h14.88a3.48 3.48 0 0 1 3.37 3.36v117.32a3.49 3.49 0 0 1-3.37 3.37h-14.88a3.49 3.49 0 0 1-3.37-3.37zm67.03 48.03c18.25 0 33.14 13.82 33.14 33a42.71 42.71 0 0 1-.36 4.78 3.42 3.42 0 0 1-3.36 3h-45.37a16.9 16.9 0 0 0 17 15.41 24.61 24.61 0 0 0 13.83-4.43c1.77-1.06 3.36-1.41 4.6 0l7.27 8.33a2.92 2.92 0 0 1-.18 4.61c-5.85 5.49-14.88 9.75-26.4 9.75-21.27 0-36.33-16.84-36.33-37.22-.01-20.04 15.07-37.23 36.16-37.23zm12.41 28.35a13.25 13.25 0 0 0-12.94-12.05 14 14 0 0 0-13.82 12.05zM558 358.61a.84.84 0 0 1-.82.82h-1.06a.84.84 0 0 1-.82-.82v-42.26a.84.84 0 0 1 .88-.81h.69a.66.66 0 0 1 .75.63l.19 1.75a12.67 12.67 0 0 1 8.21-3c7 0 12.11 5.83 12.11 13.17s-5.27 13.16-12.67 13.16a11.43 11.43 0 0 1-7.46-2.57zm7.15-20c6.08 0 10.22-4.64 10.22-10.59s-3.83-10.54-9.53-10.54a10 10 0 0 0-7.78 3.51v14.67a9.76 9.76 0 0 0 7.12 2.95zm31.44-23.7c7 0 12.6 6 12.6 13.11 0 7.33-5.58 13.22-12.6 13.22S584 335.35 584 328a12.84 12.84 0 0 1 12.59-13.09zm0 23.76c5.51 0 9.84-4.7 9.84-10.65 0-5.77-4.33-10.48-9.84-10.48s-9.91 4.71-9.91 10.48c0 5.98 4.32 10.65 9.91 10.65zm18.8-1.12l.63-1a.73.73 0 0 1 1.13-.06 11.13 11.13 0 0 0 6.71 2.45c3.57 0 6-2 6-4.46 0-2.88-2.83-4.07-7-5.64-4.45-1.57-7.71-3.51-7.71-7.4 0-2.76 2.45-6.52 8.22-6.52a13.17 13.17 0 0 1 7.08 2 .87.87 0 0 1 .25 1.19l-.38.69a.84.84 0 0 1-1.19.31 11.9 11.9 0 0 0-5.76-1.75c-4 0-5.4 2.32-5.4 4 0 2.51 2.26 3.7 6 5 4.7 1.75 8.84 3.32 8.84 7.89 0 3.77-3.89 7-8.9 7a12.76 12.76 0 0 1-8.22-2.82.68.68 0 0 1-.3-.88zM641.1 318h-3c-.63 0-.75-.31-.75-.81v-1c0-.44.31-.63.75-.63h3v-6.86a.78.78 0 0 1 .81-.81l1.07-.06a.82.82 0 0 1 .81.81v6.9h8.72a.78.78 0 0 1 .81.81v.82a.75.75 0 0 1-.81.81h-8.72v16c0 2.95.32 4.58 3.26 4.58a13.44 13.44 0 0 0 5.71-1.69c.56-.32.81-.07 1 .25l.44.75a.73.73 0 0 1-.19 1.07 12.5 12.5 0 0 1-7.27 2.31c-5.21 0-5.64-3.07-5.64-7.08z" transform="translate(-116.45 -182.49)" id="Layer_2" data-name="Layer 2"/></g></svg>