<svg viewBox="0 0 447 133" xmlns="http://www.w3.org/2000/svg" fill-rule="evenodd" clip-rule="evenodd" stroke-linejoin="round" stroke-miterlimit="1.414"><path d="M70.624 118.991c.057-.012.11-.028.163-.04-.244-.991-.381-2.025-.763-2.963-.6-1.475-1.809-2.134-3.406-2.043-1.447.081-2.344.94-2.8 2.215-.669 1.869-.678 3.794 0 5.669.441 1.222 1.3 2.019 2.663 2.137 1.278.113 2.34-.3 3.128-1.331.818-1.078 1.028-2.331 1.015-3.644m-5.315 9.032c-.535-.088-1.075-.138-1.6-.269-1.95-.494-3.428-1.65-4.253-3.463-1.641-3.596-1.675-7.231.253-10.731 1.722-3.119 5.787-4.34 8.681-2.65.816.478 1.472 1.235 2.144 1.813v-8.71h4.843v23.382h-4.668v-2.438c-.403.534-.675.975-1.019 1.35-.909.991-2.075 1.478-3.403 1.606-.21.022-.416.075-.625.11h-.353zM5.363 114.398c1.975 0 3.909.122 5.821-.037 1.663-.138 2.66-1.478 2.604-3.06-.06-1.709-1.038-2.834-2.75-3-1.16-.112-2.338-.081-3.507-.096-.715-.013-1.431-.004-2.168-.004v6.197zm-.038 4.132v8.868H0v-23.431h.475c3.75.003 7.506-.044 11.259.025 2.204.041 4.219.703 5.8 2.359 2.932 3.072 1.822 8.241-2.109 9.804-.209.084-.419.165-.706.281.4.162.706.284 1.006.415 1.875.813 2.559 2.404 2.769 4.285.172 1.569.29 3.147.478 4.715.059.504.266.988.425 1.544-.1.01-.259.038-.419.038-1.387.003-2.778-.035-4.165.018-.647.022-.947-.218-1.01-.828-.115-1.122-.225-2.25-.35-3.372-.075-.7-.115-1.406-.278-2.084-.359-1.528-1.353-2.494-2.916-2.609-1.609-.119-3.231-.028-4.934-.028m20.837-1.119h7.087c-.115-2.154-1.368-3.635-3.103-3.707-2.347-.09-3.662 1.128-3.984 3.707m12.237 2.89H26.168c.05 2.028 1.406 3.847 3.447 3.994 1.431.1 2.681-.122 3.522-1.431.05-.075.19-.138.29-.138 1.5-.009 3.004-.006 4.566-.006-.534 1.791-1.575 3.087-3.106 4.012-2.994 1.807-8.219 1.666-11.022-1.103-1.356-1.34-2.169-2.937-2.472-4.797-.434-2.65-.016-5.137 1.603-7.334 1.516-2.056 3.619-3.097 6.135-3.294 1.909-.147 3.728.207 5.365 1.26 2.141 1.372 3.147 3.453 3.578 5.859.172.947.213 1.922.325 2.978m12.639-.971c-.756.237-1.431.469-2.116.662-.69.194-1.4.322-2.087.535-.384.119-.763.3-1.097.522-.628.412-.866 1.034-.806 1.768.059.744.431 1.272 1.122 1.575 1.297.566 3.25.122 4.203-.928 1.112-1.222.687-2.7.781-4.134m5.469 8.103c-1.666 0-3.169.013-4.672-.016-.156-.003-.394-.187-.447-.34-.184-.513-.3-1.044-.459-1.628-.313.331-.6.684-.932.987-1.378 1.272-3.065 1.547-4.853 1.406-1.262-.1-2.459-.434-3.437-1.296-2.753-2.429-1.941-6.925 1.519-8.091 1.334-.45 2.775-.581 4.162-.875.759-.159 1.528-.306 2.266-.547.959-.319 1.278-.809 1.24-1.672-.04-.853-.534-1.481-1.418-1.703-.869-.222-1.744-.197-2.588.141-.678.272-1.106.762-1.312 1.465-.047.169-.219.425-.338.428-1.425.029-2.85.019-4.325.019.194-2.128 1.213-3.628 3.041-4.581 1.893-.981 3.934-1.072 5.993-.872a9.542 9.542 0 0 1 2.329.516c2.146.784 3.293 2.397 3.403 4.647.103 2.165.047 4.34.062 6.509.003.45-.022.9.003 1.35.082 1.372-.287 2.816.763 4.153" fill="#FFF" fill-rule="nonzero"/><path fill="#FFF" d="M78.485 122.307h5.128v5.091h-5.128z"/><path d="M338.886 117.664h6.803c.175-1.838-1.062-3.419-2.815-3.641-2.128-.272-3.594 1.038-3.988 3.641m3.313 10.343c-.753-.153-1.519-.25-2.25-.468-3.1-.938-5.016-3.032-5.635-6.188-.656-3.34-.018-6.39 2.635-8.731 2.419-2.138 5.294-2.484 8.294-1.584 2.921.875 4.493 3.068 5.15 5.946.253 1.107.312 2.257.478 3.5h-11.957c.163 3.075 2.866 4.8 5.507 3.619.168-.078.4-.131.484-.269.822-1.362 2.153-1.021 3.381-1.028.682-.006 1.36-.003 2.16-.003-.672 2.178-2.013 3.628-4.016 4.422-.931.372-1.947.528-2.922.784h-1.309zm-38.179-8.836c.347 1.235.503 2.457 1.025 3.504 1.103 2.215 4.222 2.418 5.659.465 1.384-1.89 1.434-5.65.1-7.6-1.437-2.097-4.503-2.047-5.706.191-.55 1.028-.722 2.256-1.078 3.44m2.89 8.835c-.559-.147-1.125-.272-1.672-.441-3.684-1.128-6.046-4.547-5.893-8.512.165-4.397 2.678-7.525 6.968-8.282 5.822-1.021 10.147 2.735 10.322 8.219.15 4.663-2.937 8.381-7.259 8.869-.081.009-.15.097-.225.147h-2.241zm-35.474 0c-.84-.194-1.694-.334-2.509-.597-2.453-.787-4.028-2.681-4.159-4.962h4.44c.841 2.031 2.538 2.825 4.669 2.178.803-.244 1.4-.734 1.428-1.631.025-.888-.581-1.338-1.359-1.528-1.657-.4-3.332-.707-4.975-1.138-4.041-1.059-4.26-4.391-3.313-6.609.722-1.691 2.25-2.457 3.922-2.835 1.928-.44 3.891-.428 5.806.153 1.778.541 3.147 1.582 3.744 3.435.087.281.125.581.2.937h-4.381c-.803-1.531-2.347-2.143-4.056-1.565-.644.215-1.163.593-1.188 1.378-.025.828.544 1.184 1.184 1.344 1.532.371 3.088.646 4.632.984a8.96 8.96 0 0 1 1.415.444c1.878.762 2.916 2.165 3.019 4.193.091 1.86-.506 3.525-2.203 4.416-1.256.663-2.71.947-4.075 1.403h-2.241zm17.737 0c-1.588-.394-3.144-.815-4.475-1.869-2.706-2.137-3.819-6.321-2.594-10 1.1-3.29 4.063-5.415 7.625-5.509 3.222-.081 5.863.919 7.394 3.959.303.594.45 1.269.719 2.044-1.554 0-2.972.019-4.391-.022-.178-.006-.434-.303-.519-.518-.475-1.194-1.356-1.835-2.619-1.888-1.343-.059-2.471.456-3.068 1.697-1.06 2.191-1.035 4.453-.025 6.647.622 1.353 1.99 1.959 3.506 1.709 1.378-.225 2.178-1.081 2.419-2.459.028-.147.128-.281.2-.447h4.465c.063 3.187-2.456 5.941-5.897 6.469-.231.037-.459.122-.687.187h-2.053z" fill="#FFF" fill-rule="nonzero"/><path fill="#FFF" d="M363.754 122.404h5.144v5.041h-5.144z"/><path d="M240.497 108.972v13.997c1.419 0 2.785.028 4.144-.003 2.313-.056 4.091-1.375 4.788-3.587.759-2.385.718-4.772-.21-7.1-.797-2.003-2.337-3.119-4.465-3.288-1.388-.106-2.788-.019-4.257-.019m-5.262 18.382v-22.853h1.019c2.487 0 4.975.075 7.462-.016 7.941-.275 11.638 5.241 11.544 11.753-.047 3.038-.706 5.847-2.847 8.141-1.884 2.018-4.319 2.912-6.994 3.018-3.29.129-6.587.035-9.884.035-.084 0-.172-.044-.3-.078m81.923-16.285h5.068l3.275 11.787c.597-2.209 1.247-4.696 1.947-7.175a63.842 63.842 0 0 1 1.303-4.065c.091-.25.485-.547.75-.556 1.366-.057 2.732-.029 4.241-.029-.522 1.522-1.013 2.969-1.516 4.41-1.303 3.74-2.625 7.472-3.909 11.215-.197.585-.45.838-1.109.804-1.272-.063-2.55.003-3.825-.038-.238-.006-.616-.2-.685-.394-1.853-5.275-3.675-10.562-5.54-15.959m40.808 16.333h-4.738V111.09h4.569v2.69c1.25-2.25 3.022-3.281 5.616-2.89v4.187c-.591 0-1.147-.037-1.694.009-2.085.172-3.535 1.554-3.638 3.654-.122 2.384-.084 4.781-.115 7.168-.007.466 0 .932 0 1.494" fill="#FFF" fill-rule="nonzero"/><path fill="#FFF" d="M257.801 111.092h4.7v16.294h-4.7zm-.047-6.541h4.822v4.162h-4.822zm-160.766.01h5.328v23.122h-5.328zm119.847 18.081h5.162v5.041h-5.162z"/><path d="M131.063 127.634h-4.819c0-.381.003-.719 0-1.059-.009-3.188 0-6.375-.044-9.56-.015-1.034-.493-1.844-1.525-2.2-1.059-.362-2-.119-2.768.697-.694.731-.925 1.647-.929 2.628-.003 2.841 0 5.678-.003 8.519v.975h-4.868v-.913c0-2.928.003-5.853-.007-8.781a9.294 9.294 0 0 0-.122-1.287c-.159-1.063-.759-1.744-1.821-1.935-1.054-.181-1.938.163-2.6 1.013-.682.878-.772 1.919-.779 2.965-.012 2.954-.003 5.904-.003 8.919h-4.831v-16.39h4.613v2.296c1.265-1.721 2.812-2.837 4.981-2.865 2.234-.028 3.778 1.028 4.631 3.012.766-.718 1.434-1.55 2.284-2.1 1.863-1.206 3.885-1.25 5.866-.281 1.922.938 2.681 2.688 2.731 4.694.082 3.678.035 7.359.041 11.04 0 .172-.016.344-.028.613m32.631-8.972c-.203-.769-.331-1.635-.656-2.419-.566-1.359-1.744-1.894-3.141-1.881-1.316.009-2.356.615-2.9 1.844-.7 1.571-.756 3.184-.053 4.784.6 1.375 1.69 2.012 3.156 1.991 1.472-.022 2.55-.719 3.066-2.116.243-.669.337-1.391.528-2.203m-.228-5.816v-1.65h4.606c.019.169.044.306.044.444 0 4.925.025 9.847-.013 14.769-.031 3.731-1.834 5.993-5.453 6.753-2.628.55-5.247.419-7.691-.841-1.606-.825-2.568-2.153-2.878-4.065 1.503 0 2.916-.019 4.325.025.216.006.475.262.622.468.753 1.066 2.547 1.51 4.278 1.022 1.275-.359 2.041-1.344 2.091-2.75.031-.853.006-1.706.006-2.756-.822 1.153-1.734 1.9-2.959 2.2-2.966.725-6.131-.631-7.66-3.281-1.765-3.053-1.381-7.572.875-10.272 1.735-2.078 5.047-2.916 7.494-1.772.828.384 1.503 1.097 2.313 1.706m39.087 4.897h6.891c.019-2.075-1.391-3.606-3.291-3.625-2.087-.022-3.55 1.438-3.6 3.625m11.907 2.919h-11.838c-.25 1.728 1.113 3.587 2.881 3.862 1.441.222 2.844.144 3.81-1.237.115-.166.431-.272.656-.275 1.359-.025 2.719-.013 4.081-.013-.247 2.978-4.322 5.494-8.322 5.169-5.278-.431-8.468-4.269-8.062-9.703.353-4.722 4.356-8.181 9.097-7.797 5.394.441 7.787 4.538 7.697 9.994m-70.046-.999c-.79.256-1.412.478-2.043.656-.638.181-1.297.278-1.928.478-.488.159-.985.359-1.4.653-1.007.725-.941 2.378.078 3.056 1.64 1.091 4.606.054 5.072-1.859.225-.928.153-1.928.221-2.984m5.007 8.009c-1.319 0-2.81.019-4.297-.019-.169-.003-.4-.29-.478-.493-.166-.422-.247-.882-.397-1.447-.91 1.047-1.85 1.925-3.188 2.184-1.681.322-3.34.313-4.912-.447-1.85-.897-2.588-2.5-2.578-4.459.009-1.963.915-3.456 2.812-4.041 1.725-.528 3.538-.784 5.306-1.172.475-.103.96-.215 1.413-.39.659-.253 1.172-.691 1.147-1.463-.028-.853-.431-1.49-1.269-1.787-1.853-.657-3.456.087-4.169 1.965h-4.431c.181-2.04 1.122-3.568 2.913-4.443 2.821-1.375 5.768-1.404 8.653-.254 2.028.81 2.965 2.532 3.012 4.669.06 2.894-.012 5.791.044 8.688.019.943.262 1.881.419 2.909m45.814-.029h-4.709c-.019-.334-.044-.641-.044-.95-.003-2.778 0-5.559-.003-8.341 0-.231.009-.462-.003-.693-.128-1.891-.969-2.828-2.638-2.953-1.54-.116-2.925 1.018-3.212 2.684-.1.594-.125 1.206-.128 1.812-.01 2.779-.006 5.557-.006 8.407h-4.822v-16.41h4.7v2.207c1.362-1.95 3.184-2.8 5.45-2.75 3.018.068 5.29 2.109 5.384 5.118.125 3.928.031 7.866.031 11.869" fill="#FFF" fill-rule="nonzero"/><path fill="#FFF" d="M171.497 111.204h4.781v16.409h-4.781zm-.04-6.606h4.884v4.112h-4.884z"/><path d="M13.946 83.451h6.015c11.213 0 12.032-6.838 12.032-16.407 0-9.703-1.775-14.765-11.894-14.765h-6.153v31.172zm0-43.475h6.287c9.297 0 11.76-4.785 11.76-13.672 0-8.613-3.144-13.128-12.304-13.128h-5.743v26.8zM.002.047h20.369c18.043 0 24.747 11.894 24.747 24.61v3.553c0 10.397-3.419 14.219-9.569 18.044 6.562 3.143 9.569 9.025 9.569 19.14v5.469c0 16.953-8.063 26.525-26.113 26.525H.002V.047zm170.241 0h13.94v58.241h.272l16.822-30.216h13.947l-16.547 28.163 19.96 41.156h-15.188l-12.575-29.944-6.691 10.529v19.415H170.24l.003-97.344zm79.571 67.54a20.515 20.515 0 0 0-3.831-.409c-6.012 0-10.94 2.447-10.94 9.847 0 5.331 2.734 8.884 7.25 8.884 4.65 0 7.521-3.284 7.521-8.884v-9.438zm0 22.697h-.278c-3.69 5.057-6.693 7.928-13.397 7.928-6.421 0-15.037-3.143-15.037-18.456 0-15.859 4.509-23.515 22.016-23.515 1.915 0 3.831.271 6.703.409v-7.247c0-4.644-1.778-8.2-6.972-8.2-3.556 0-7.113 2.444-7.935 6.972h-13.54c.412-6.153 2.597-11.35 6.287-15.041 3.694-3.69 8.888-5.881 15.182-5.881 11.618 0 20.915 7.384 20.915 21.875v48.266h-13.944v-7.11zm51.948-40.88c0-4.372-1.504-8.203-6.838-8.203-3.975 0-6.972 3.143-6.972 7.521v26.935c0 5.056 2.735 8.615 6.972 8.615 4.788 0 6.838-3.831 6.838-9.437V49.404zM274.008.047h13.947v34.319h.272c3.01-4.515 7.381-7.112 12.844-7.112 6.697 0 10.119 2.597 12.441 6.287 1.778 2.872 2.187 6.835 2.187 16.822v26.384c0 7.647-.684 11.894-2.325 14.904-2.459 4.509-6.562 6.562-12.169 6.562-6.972 0-9.706-3.144-13.259-7.112v6.293h-13.947l.009-97.347zm94.889 97.347h-13.944v-6.703h-.271c-2.872 4.375-6.7 7.522-13.125 7.522-6.969 0-14.357-4.513-14.357-16.957V28.075h13.944v47.988c0 5.059 2.463 8.206 6.841 8.206 5.2 0 6.972-3.422 6.972-9.572V28.075h13.94v69.319zm20.365-69.318l9.571 43.204h.269l9.438-43.204h14.356l-19.963 81.347c-3.006 12.444-10.94 15.997-19.268 15.997h-3.828v-13.125h3.128c5.606 0 7.384-1.915 10.528-18.044l-18.997-66.175h14.766zM117.64 71.094c-.8 11.191 7.775 20.356 18.825 20.15 10.243-.188 19.684-8.447 18.384-21.038-.978-9.481-9.653-16.859-19.709-16.168-9.978.693-16.835 7.609-17.51 17.062l.01-.006zm-59.8 1.55c.109 15.053 17.275 22.962 28.79 15.722A18.737 18.737 0 0 0 95.268 72.2c-.222-10.869-9.175-19.006-19.931-18.159-10.179.803-17.585 8.484-17.507 18.609l.01-.006zm-3.338-17.272c2.075-9.387 4.241-19.544 6.425-29.456 2-9.091 2.419-18.841 10.185-22.591 2.368-1.137 6.809-2.294 9.531-3.106 2.012-.594 4.656-.113 4.65 3.103-1.597 5.197-8.053 3.856-11.96 6.422-3.387 2.222-3.928 7.912-5.096 13.066-2.054 9.068-4.363 20.093-6.422 29.012m.003.009c3.672-1.862 7.269-4.037 12.403-4.431 13.337-1.025 23.487 7.525 26.578 18.385h11.072c3.516-10.31 12.294-19.41 26.578-18.385 5.278.381 8.803 2.41 12.625 4.653-2.069-9.925-4.144-19.187-6.422-29.234-1.125-4.959-1.612-11.406-5.537-13.509-3.466-1.857-11.622-1.532-11.96-5.76-.422-5.45 4.932-3.165 8.638-1.99 2.447.771 4.528.962 6.422 1.99 7.034 3.813 8.047 13.763 9.962 22.813 2.085 9.822 4.238 20.356 6.422 30.34 1.138 5.182 2.838 10.4 2.878 15.5a25.636 25.636 0 0 1-7.309 18.166c-4.369 4.369-11.047 7.95-19.931 7.309-9.466-.681-17.654-6.381-21.485-15.725-1.244-3.034-1.897-10.059-6.203-10.187-2.862-.088-4.716 4.703-5.759 7.747-3.538 10.353-11.991 19.19-26.353 18.165-13.329-.959-24.113-12.2-23.035-27.243.353-4.941 2.028-10.2 3.1-15.063" fill="#FFF" fill-rule="nonzero"/><path d="M69.761 60.93c-.138 1.653-1.719 1.456-2.675 2.085-1.457.956-4.163 4.618-4.463 5.65-.359 1.24.659 3.203-1.191 3.862-1.496-.347-.953-2.472-.89-3.269.35-4.406 5.072-9.937 9.219-8.328m364.685-22.493h1.191c1.387 0 2.512-.459 2.512-1.584 0-.991-.728-1.653-2.316-1.653a5.732 5.732 0 0 0-1.387.134v3.103zm-.066 6.141h-2.506V33.753a21.878 21.878 0 0 1 4.159-.332c2.05 0 2.966.332 3.766.791a3.022 3.022 0 0 1 1.056 2.378c0 1.191-.918 2.113-2.243 2.51v.131c1.056.397 1.65 1.19 1.981 2.64.331 1.65.525 2.313.794 2.707h-2.71c-.328-.394-.525-1.385-.859-2.638-.191-1.19-.856-1.719-2.244-1.719h-1.191l-.003 4.357zm-6.668-5.675c0 4.818 3.565 8.65 8.453 8.65 4.756 0 8.253-3.832 8.253-8.585 0-4.822-3.494-8.718-8.316-8.718-4.825 0-8.387 3.896-8.387 8.653h-.003zm19.475 0c0 6.14-4.816 10.959-11.094 10.959-6.203 0-11.153-4.819-11.153-10.959 0-6.01 4.95-10.828 11.153-10.828 6.281.003 11.094 4.821 11.094 10.828" fill="#FFF" fill-rule="nonzero"/></svg>